<mxfile host="app.diagrams.net" modified="2023-04-20T05:46:32.519Z" agent="Mozilla/5.0 (Windows NT 10.0; Win64; x64) AppleWebKit/537.36 (KHTML, like Gecko) Chrome/112.0.0.0 Safari/537.36" version="21.2.1" etag="GN7X8atT9nkS6JSJW6hh" type="github">
  <diagram name="Page-1" id="ZsaOaX8PDvgZA-ZNxe5w">
    <mxGraphModel>
      <root>
        <mxCell id="0" />
        <mxCell id="1" parent="0" />
      </root>
    </mxGraphModel>
  </diagram>
</mxfile>
